<svg width="52" height="52" viewBox="0 0 52 52" fill="none" xmlns="http://www.w3.org/2000/svg">
<path d="M26 50.375C39.4619 50.375 50.375 39.4619 50.375 26C50.375 12.5381 39.4619 1.625 26 1.625C12.5381 1.625 1.625 12.5381 1.625 26C1.625 39.4619 12.5381 50.375 26 50.375Z" stroke="#58A9F3" stroke-width="2" stroke-miterlimit="10" stroke-linecap="round" stroke-linejoin="round"/>
<path d="M26 28.4375C27.3462 28.4375 28.4375 27.3462 28.4375 26C28.4375 24.6538 27.3462 23.5625 26 23.5625C24.6538 23.5625 23.5625 24.6538 23.5625 26C23.5625 27.3462 24.6538 28.4375 26 28.4375Z" stroke="#58A9F3" stroke-width="2" stroke-miterlimit="10" stroke-linecap="round" stroke-linejoin="round"/>
<path d="M26 8.125V23.5625V8.125ZM27.5933 27.8371L37.375 34.125L27.5933 27.8371Z" stroke="#58A9F3" stroke-width="2" stroke-miterlimit="10" stroke-linecap="round" stroke-linejoin="round"/>
</svg>
