<svg width="64" height="64" viewBox="0 0 64 64" fill="none" xmlns="http://www.w3.org/2000/svg">
<path d="M39.4386 25.1429C42.2789 25.1429 44.5815 27.4454 44.5815 30.2857V44.5691C44.5815 51.5134 38.952 57.1429 32.0076 57.1429C25.0633 57.1429 19.4338 51.5134 19.4338 44.5691V30.2857C19.4338 27.4454 21.7363 25.1429 24.5767 25.1429H39.4386ZM39.4386 28.5715H24.5767C23.6299 28.5715 22.8624 29.339 22.8624 30.2857V44.5691C22.8624 49.6198 26.9569 53.7143 32.0076 53.7143C37.0584 53.7143 41.1529 49.6198 41.1529 44.5691V30.2857C41.1529 29.339 40.3854 28.5715 39.4386 28.5715ZM9.71512 25.1429L19.2156 25.1435C18.3135 26.0838 17.6563 27.2609 17.3467 28.5722L9.71512 28.5715C8.76835 28.5715 8.00084 29.339 8.00084 30.2857V42.2829C8.00084 46.0716 11.0722 49.1429 14.8608 49.1429C15.8685 49.1429 16.8255 48.9256 17.6874 48.5354C17.9924 49.654 18.429 50.7198 18.9765 51.716C17.7171 52.2658 16.3246 52.5715 14.8608 52.5715C9.17861 52.5715 4.57227 47.9651 4.57227 42.2829V30.2857C4.57227 27.4454 6.8748 25.1429 9.71512 25.1429ZM54.2865 25.1429C57.1269 25.1429 59.4294 27.4454 59.4294 30.2857V42.2857C59.4294 47.9664 54.8243 52.5715 49.1437 52.5715C47.683 52.5715 46.2933 52.267 45.0349 51.718L45.1622 51.4866C45.6515 50.5581 46.0453 49.5715 46.3307 48.5398C47.1866 48.9272 48.14 49.1429 49.1437 49.1429C52.9308 49.1429 56.0008 46.0728 56.0008 42.2857V30.2857C56.0008 29.339 55.2333 28.5715 54.2865 28.5715L46.6686 28.5722C46.359 27.2609 45.7018 26.0838 44.7997 25.1435L54.2865 25.1429ZM32.0008 6.85718C36.4191 6.85718 40.0008 10.4389 40.0008 14.8572C40.0008 19.2755 36.4191 22.8572 32.0008 22.8572C27.5826 22.8572 24.0008 19.2755 24.0008 14.8572C24.0008 10.4389 27.5826 6.85718 32.0008 6.85718ZM50.2934 9.14289C54.0805 9.14289 57.1505 12.2129 57.1505 16C57.1505 19.7871 54.0805 22.8572 50.2934 22.8572C46.5063 22.8572 43.4362 19.7871 43.4362 16C43.4362 12.2129 46.5063 9.14289 50.2934 9.14289ZM13.7083 9.14289C17.4954 9.14289 20.5654 12.2129 20.5654 16C20.5654 19.7871 17.4954 22.8572 13.7083 22.8572C9.92121 22.8572 6.85116 19.7871 6.85116 16C6.85116 12.2129 9.92121 9.14289 13.7083 9.14289ZM32.0008 10.2857C29.4761 10.2857 27.4294 12.3324 27.4294 14.8572C27.4294 17.3819 29.4761 19.4286 32.0008 19.4286C34.5256 19.4286 36.5723 17.3819 36.5723 14.8572C36.5723 12.3324 34.5256 10.2857 32.0008 10.2857ZM50.2934 12.5715C48.3998 12.5715 46.8648 14.1065 46.8648 16C46.8648 17.8936 48.3998 19.4286 50.2934 19.4286C52.1869 19.4286 53.7219 17.8936 53.7219 16C53.7219 14.1065 52.1869 12.5715 50.2934 12.5715ZM13.7083 12.5715C11.8148 12.5715 10.2797 14.1065 10.2797 16C10.2797 17.8936 11.8148 19.4286 13.7083 19.4286C15.6018 19.4286 17.1369 17.8936 17.1369 16C17.1369 14.1065 15.6018 12.5715 13.7083 12.5715Z" fill="#58A9F3"/>
</svg>
