<svg width="64" height="64" viewBox="0 0 64 64" fill="none" xmlns="http://www.w3.org/2000/svg">
<path d="M39.4378 25.1429C42.2781 25.1429 44.5806 27.4454 44.5806 30.2857V44.5691C44.5806 51.5134 38.9511 57.1429 32.0068 57.1429C25.0625 57.1429 19.433 51.5134 19.433 44.5691V30.2857C19.433 27.4454 21.7355 25.1429 24.5758 25.1429H39.4378ZM39.4378 28.5715H24.5758C23.6291 28.5715 22.8615 29.339 22.8615 30.2857V44.5691C22.8615 49.6198 26.956 53.7143 32.0068 53.7143C37.0576 53.7143 41.1521 49.6198 41.1521 44.5691V30.2857C41.1521 29.339 40.3845 28.5715 39.4378 28.5715ZM9.71428 25.1429L19.2147 25.1435C18.3126 26.0838 17.6555 27.2609 17.3459 28.5722L9.71428 28.5715C8.76751 28.5715 8 29.339 8 30.2857V42.2829C8 46.0716 11.0713 49.1429 14.86 49.1429C15.8677 49.1429 16.8246 48.9256 17.6865 48.5354C17.9915 49.654 18.4282 50.7198 18.9757 51.716C17.7162 52.2658 16.3238 52.5715 14.86 52.5715C9.17777 52.5715 4.57143 47.9651 4.57143 42.2829V30.2857C4.57143 27.4454 6.87396 25.1429 9.71428 25.1429ZM54.2857 25.1429C57.126 25.1429 59.4286 27.4454 59.4286 30.2857V42.2857C59.4286 47.9664 54.8235 52.5715 49.1429 52.5715C47.6821 52.5715 46.2925 52.267 45.034 51.718L45.1614 51.4866C45.6507 50.5581 46.0445 49.5715 46.3299 48.5398C47.1858 48.9272 48.1391 49.1429 49.1429 49.1429C52.9299 49.1429 56 46.0728 56 42.2857V30.2857C56 29.339 55.2325 28.5715 54.2857 28.5715L46.6677 28.5722C46.3581 27.2609 45.701 26.0838 44.7989 25.1435L54.2857 25.1429ZM32 6.85718C36.4183 6.85718 40 10.4389 40 14.8572C40 19.2755 36.4183 22.8572 32 22.8572C27.5817 22.8572 24 19.2755 24 14.8572C24 10.4389 27.5817 6.85718 32 6.85718ZM50.2925 9.14289C54.0796 9.14289 57.1497 12.2129 57.1497 16C57.1497 19.7871 54.0796 22.8572 50.2925 22.8572C46.5054 22.8572 43.4354 19.7871 43.4354 16C43.4354 12.2129 46.5054 9.14289 50.2925 9.14289ZM13.7075 9.14289C17.4946 9.14289 20.5646 12.2129 20.5646 16C20.5646 19.7871 17.4946 22.8572 13.7075 22.8572C9.92037 22.8572 6.85032 19.7871 6.85032 16C6.85032 12.2129 9.92037 9.14289 13.7075 9.14289ZM32 10.2857C29.4753 10.2857 27.4286 12.3324 27.4286 14.8572C27.4286 17.3819 29.4753 19.4286 32 19.4286C34.5247 19.4286 36.5714 17.3819 36.5714 14.8572C36.5714 12.3324 34.5247 10.2857 32 10.2857ZM50.2925 12.5715C48.399 12.5715 46.864 14.1065 46.864 16C46.864 17.8936 48.399 19.4286 50.2925 19.4286C52.1861 19.4286 53.7211 17.8936 53.7211 16C53.7211 14.1065 52.1861 12.5715 50.2925 12.5715ZM13.7075 12.5715C11.8139 12.5715 10.2789 14.1065 10.2789 16C10.2789 17.8936 11.8139 19.4286 13.7075 19.4286C15.601 19.4286 17.136 17.8936 17.136 16C17.136 14.1065 15.601 12.5715 13.7075 12.5715Z" fill="#58A9F3"/>
</svg>
