<svg width="64" height="64" viewBox="0 0 64 64" fill="none" xmlns="http://www.w3.org/2000/svg">
<g clip-path="url(#clip0_1151_15257)">
<path d="M47.7874 38.9855C52.5647 34.2082 55.1956 27.8559 55.1956 21.099C55.1956 14.3416 52.5645 7.98978 47.7873 3.21388C47.3494 2.77626 46.6399 2.77626 46.2021 3.21403L44.0149 5.40125C35.7379 -2.04865 22.9399 -1.79188 14.9754 6.17277C7.01077 14.1373 6.75385 26.9352 14.2041 35.2121L12.0158 37.4004C11.8055 37.6106 11.6874 37.8957 11.6874 38.1931C11.6874 38.4905 11.8056 38.7755 12.0159 38.9858C16.5294 43.4978 22.4467 46.0939 28.7813 46.3685V57.2747H24.7142C21.6238 57.2747 19.1095 59.7889 19.1095 62.8793C19.1095 63.4984 19.6114 64.0003 20.2305 64.0003H39.5741C40.1933 64.0003 40.695 63.4984 40.695 62.8793C40.695 59.7889 38.181 57.2747 35.0905 57.2747H31.0232V46.3685C37.357 46.0938 43.2737 43.4976 47.7874 38.9855ZM38.2611 61.7581H21.5437C22.0062 60.4533 23.2529 59.5163 24.7142 59.5163H35.0905C36.552 59.5165 37.7983 60.4534 38.2611 61.7581ZM44.9823 17.0247C44.8277 17.6801 44.6331 18.3392 44.4012 18.9988C41.8658 18.2111 39.5176 16.8883 37.4966 15.0901L43.9684 8.61826C45.4256 10.6728 45.7888 13.6076 44.9823 17.0247ZM14.8215 25.1737C14.976 24.5186 15.1706 23.8597 15.4023 23.2005C17.9379 23.9883 20.2861 25.3112 22.307 27.1092L15.8357 33.5804C14.3785 31.5259 14.015 28.5909 14.8215 25.1737ZM28.3168 21.0993L23.8951 25.521C21.6616 23.5088 19.0644 22.0208 16.2578 21.1197C17.4242 18.6382 19.0986 16.1961 21.1805 13.963L28.3168 21.0993ZM23.8923 28.6944C25.6905 30.7154 27.0133 33.0634 27.8009 35.5987C27.1414 35.8306 26.4825 36.025 25.8274 36.1796C22.4102 36.9859 19.4753 36.6227 17.4211 35.1655L23.8923 28.6944ZM25.4805 27.1063L29.9021 22.6847L37.0382 29.8207C34.8052 31.9026 32.3632 33.577 29.8818 34.7432C28.9809 31.9368 27.4928 29.3399 25.4805 27.1063ZM31.4875 21.0993L35.9084 16.6784C38.1421 18.6908 40.7393 20.179 43.5456 21.0798C42.3792 23.5608 40.7051 26.0024 38.6235 28.2352L31.4875 21.0993ZM35.9112 13.5048C34.1129 11.4834 32.7897 9.1348 32.0021 6.59859C36.146 5.12774 39.8984 5.27287 42.3829 7.03292L35.9112 13.5048ZM31.4655 4.41466C31.3373 3.71458 31.2486 3.00389 31.1996 2.28558C32.9698 2.40664 34.7259 2.77611 36.4113 3.39294C34.8402 3.48934 33.1765 3.82862 31.4655 4.41466ZM29.3445 5.25867C29.0094 5.41007 28.6734 5.56835 28.3365 5.73799C27.7837 6.01644 27.5611 6.69051 27.8396 7.24337C28.118 7.79622 28.7922 8.01877 29.3449 7.74032C29.538 7.64302 29.7306 7.54976 29.9228 7.45919C30.8239 10.2644 32.3116 12.8604 34.3231 15.0931L29.9021 19.514L22.7659 12.3778C23.0874 12.0784 23.4137 11.7858 23.7431 11.5039C24.2135 11.1014 24.2685 10.3937 23.866 9.92336C23.4633 9.45285 22.7559 9.398 22.2854 9.8005C21.9122 10.1199 21.5434 10.452 21.1802 10.7919L17.3776 6.98928C20.6872 4.04773 24.7903 2.4727 28.9514 2.26465C29.0121 3.27815 29.1435 4.27805 29.3445 5.25867ZM19.5942 12.3766C17.2277 14.9042 15.3404 17.697 14.0576 20.5417C13.0783 20.3411 12.0796 20.2099 11.0676 20.1492C11.2755 15.9884 12.8508 11.8843 15.7922 8.57477L19.5942 12.3766ZM13.2172 22.6635C12.9898 23.3295 12.7961 23.9955 12.6396 24.6588C12.4006 25.6714 12.2519 26.6526 12.1907 27.5955C11.577 25.9144 11.209 24.163 11.0884 22.3976C11.8065 22.4466 12.5171 22.5352 13.2172 22.6635ZM26.3424 38.3615C27.0057 38.2051 27.6717 38.0112 28.3377 37.7839C28.4664 38.4869 28.5552 39.2005 28.6041 39.9219C26.799 39.8001 25.0439 39.4245 23.3793 38.8126C24.3304 38.7525 25.3205 38.6028 26.3424 38.3615ZM30.8526 39.9431C30.7923 38.9278 30.661 37.9259 30.4596 36.9435C33.3043 35.6606 36.0969 33.7735 38.6246 31.4069L42.4267 35.2091C39.2069 38.0747 35.1627 39.7308 30.8526 39.9431ZM44.0117 33.6235L40.2097 29.8216C42.576 27.2944 44.4631 24.5018 45.7459 21.6576C46.7254 21.8582 47.7241 21.9892 48.7362 22.0498C48.5282 26.2103 46.953 30.3141 44.0117 33.6235ZM46.5865 19.5358C46.814 18.8695 47.0077 18.2032 47.1643 17.5398C47.4033 16.5272 47.552 15.5459 47.6132 14.6031C48.2269 16.2844 48.5948 18.0358 48.7155 19.8016C47.9973 19.7525 47.2866 19.6639 46.5865 19.5358ZM15.7892 36.7974C19.67 40.2948 24.6387 42.2085 29.902 42.2085C35.5404 42.2085 40.8415 40.0128 44.8287 36.0256C52.7931 28.061 53.05 15.2633 45.6002 6.98644L46.9762 5.6105C50.8394 9.85834 52.9539 15.3155 52.9539 21.0989C52.9539 27.257 50.5561 33.0462 46.2023 37.4001C41.8468 41.754 36.058 44.1518 29.9023 44.1518C24.1207 44.1518 18.6631 42.0372 14.4125 38.1738L15.7892 36.7974Z" fill="#58A9F3"/>
<path d="M24.9104 9.00909C25.3 9.95025 26.6881 9.89421 27.009 8.93212C27.3308 7.9672 26.243 7.10062 25.3722 7.61761C24.9026 7.89635 24.6971 8.50377 24.9104 9.00909C24.882 8.94184 24.9388 9.07785 24.9104 9.00909Z" fill="#58A9F3"/>
</g>
<defs>
<clipPath id="clip0_1151_15257">
<rect width="64" height="64" fill="white"/>
</clipPath>
</defs>
</svg>
