<svg width="64" height="64" viewBox="0 0 64 64" fill="none" xmlns="http://www.w3.org/2000/svg">
<g clip-path="url(#clip0_1199_15155)">
<path d="M47.7882 38.9855C52.5655 34.2082 55.1964 27.8559 55.1964 21.099C55.1964 14.3416 52.5653 7.98978 47.7881 3.21388C47.3502 2.77626 46.6407 2.77626 46.2029 3.21403L44.0157 5.40125C35.7387 -2.04865 22.9407 -1.79188 14.9762 6.17277C7.01156 14.1373 6.75464 26.9352 14.2048 35.2121L12.0166 37.4004C11.8063 37.6106 11.6882 37.8957 11.6882 38.1931C11.6882 38.4905 11.8064 38.7755 12.0167 38.9858C16.5302 43.4978 22.4475 46.0939 28.7821 46.3685V57.2747H24.715C21.6246 57.2747 19.1103 59.7889 19.1103 62.8793C19.1103 63.4984 19.6122 64.0003 20.2313 64.0003H39.5749C40.1941 64.0003 40.6958 63.4984 40.6958 62.8793C40.6958 59.7889 38.1817 57.2747 35.0913 57.2747H31.024V46.3685C37.3578 46.0938 43.2745 43.4976 47.7882 38.9855ZM38.2619 61.7581H21.5444C22.007 60.4533 23.2537 59.5163 24.715 59.5163H35.0913C36.5528 59.5165 37.7991 60.4534 38.2619 61.7581ZM44.9831 17.0247C44.8284 17.6801 44.6338 18.3392 44.402 18.9988C41.8666 18.2111 39.5184 16.8883 37.4974 15.0901L43.9692 8.61826C45.4264 10.6728 45.7896 13.6076 44.9831 17.0247ZM14.8223 25.1737C14.9768 24.5186 15.1714 23.8597 15.4031 23.2005C17.9387 23.9883 20.2869 25.3112 22.3077 27.1092L15.8365 33.5804C14.3793 31.5259 14.0158 28.5909 14.8223 25.1737ZM28.3176 21.0993L23.8959 25.521C21.6624 23.5088 19.0652 22.0208 16.2586 21.1197C17.425 18.6382 19.0994 16.1961 21.1813 13.963L28.3176 21.0993ZM23.8931 28.6944C25.6913 30.7154 27.0141 33.0634 27.8017 35.5987C27.1422 35.8306 26.4833 36.025 25.8282 36.1796C22.411 36.9859 19.4761 36.6227 17.4219 35.1655L23.8931 28.6944ZM25.4813 27.1063L29.9029 22.6847L37.039 29.8207C34.806 31.9026 32.364 33.577 29.8826 34.7432C28.9816 31.9368 27.4936 29.3399 25.4813 27.1063ZM31.4883 21.0993L35.9092 16.6784C38.1429 18.6908 40.7401 20.179 43.5464 21.0798C42.38 23.5608 40.7059 26.0024 38.6243 28.2352L31.4883 21.0993ZM35.912 13.5048C34.1137 11.4834 32.7905 9.1348 32.0029 6.59859C36.1468 5.12774 39.8992 5.27287 42.3837 7.03292L35.912 13.5048ZM31.4663 4.41466C31.3381 3.71458 31.2494 3.00389 31.2004 2.28558C32.9706 2.40664 34.7266 2.77611 36.4121 3.39294C34.841 3.48934 33.1773 3.82862 31.4663 4.41466ZM29.3453 5.25867C29.0102 5.41007 28.6742 5.56835 28.3373 5.73799C27.7845 6.01644 27.5619 6.69051 27.8404 7.24337C28.1188 7.79622 28.793 8.01877 29.3457 7.74032C29.5388 7.64302 29.7313 7.54976 29.9236 7.45919C30.8247 10.2644 32.3124 12.8604 34.3238 15.0931L29.9029 19.514L22.7667 12.3778C23.0882 12.0784 23.4145 11.7858 23.7439 11.5039C24.2143 11.1014 24.2693 10.3937 23.8668 9.92336C23.4641 9.45285 22.7567 9.398 22.2862 9.8005C21.913 10.1199 21.5441 10.452 21.181 10.7919L17.3784 6.98928C20.688 4.04773 24.791 2.4727 28.9522 2.26465C29.0129 3.27815 29.1443 4.27805 29.3453 5.25867ZM19.595 12.3766C17.2284 14.9042 15.3412 17.697 14.0584 20.5417C13.0791 20.3411 12.0804 20.2099 11.0684 20.1492C11.2763 15.9884 12.8516 11.8843 15.793 8.57477L19.595 12.3766ZM13.2179 22.6635C12.9906 23.3295 12.7969 23.9955 12.6404 24.6588C12.4014 25.6714 12.2527 26.6526 12.1914 27.5955C11.5778 25.9144 11.2098 24.163 11.0892 22.3976C11.8073 22.4466 12.5179 22.5352 13.2179 22.6635ZM26.3432 38.3615C27.0065 38.2051 27.6725 38.0112 28.3385 37.7839C28.4672 38.4869 28.556 39.2005 28.6049 39.9219C26.7998 39.8001 25.0447 39.4245 23.3801 38.8126C24.3312 38.7525 25.3213 38.6028 26.3432 38.3615ZM30.8534 39.9431C30.7931 38.9278 30.6617 37.9259 30.4604 36.9435C33.3051 35.6606 36.0977 33.7735 38.6253 31.4069L42.4275 35.2091C39.2077 38.0747 35.1635 39.7308 30.8534 39.9431ZM44.0125 33.6235L40.2105 29.8216C42.5768 27.2944 44.4639 24.5018 45.7467 21.6576C46.7262 21.8582 47.7249 21.9892 48.737 22.0498C48.529 26.2103 46.9538 30.3141 44.0125 33.6235ZM46.5873 19.5358C46.8148 18.8695 47.0085 18.2032 47.1651 17.5398C47.4041 16.5272 47.5528 15.5459 47.614 14.6031C48.2277 16.2844 48.5956 18.0358 48.7162 19.8016C47.9981 19.7525 47.2874 19.6639 46.5873 19.5358ZM15.79 36.7974C19.6708 40.2948 24.6395 42.2085 29.9028 42.2085C35.5412 42.2085 40.8423 40.0128 44.8295 36.0256C52.7938 28.061 53.0508 15.2633 45.601 6.98644L46.977 5.6105C50.8402 9.85834 52.9547 15.3155 52.9547 21.0989C52.9547 27.257 50.5569 33.0462 46.203 37.4001C41.8476 41.754 36.0588 44.1518 29.9031 44.1518C24.1215 44.1518 18.6639 42.0372 14.4133 38.1738L15.79 36.7974Z" fill="#58A9F3"/>
<path d="M24.9109 9.00909C25.3006 9.95025 26.6886 9.89421 27.0095 8.93212C27.3313 7.9672 26.2435 7.10062 25.3728 7.61761C24.9032 7.89635 24.6977 8.50377 24.9109 9.00909C24.9393 9.07785 24.8825 8.94184 24.9109 9.00909Z" fill="#58A9F3"/>
</g>
<defs>
<clipPath id="clip0_1199_15155">
<rect width="64" height="64" fill="white"/>
</clipPath>
</defs>
</svg>
