<svg width="56" height="52" viewBox="0 0 56 52" fill="none" xmlns="http://www.w3.org/2000/svg">
<path d="M35.4386 19.1429C38.2789 19.1429 40.5815 21.4454 40.5815 24.2857V38.5691C40.5815 45.5134 34.952 51.1429 28.0076 51.1429C21.0633 51.1429 15.4338 45.5134 15.4338 38.5691V24.2857C15.4338 21.4454 17.7363 19.1429 20.5767 19.1429H35.4386ZM35.4386 22.5715H20.5767C19.6299 22.5715 18.8624 23.339 18.8624 24.2857V38.5691C18.8624 43.6198 22.9569 47.7143 28.0076 47.7143C33.0584 47.7143 37.1529 43.6198 37.1529 38.5691V24.2857C37.1529 23.339 36.3854 22.5715 35.4386 22.5715ZM5.71512 19.1429L15.2156 19.1435C14.3135 20.0838 13.6563 21.2609 13.3467 22.5722L5.71512 22.5715C4.76835 22.5715 4.00084 23.339 4.00084 24.2857V36.2829C4.00084 40.0716 7.07215 43.1429 10.8608 43.1429C11.8685 43.1429 12.8255 42.9256 13.6874 42.5354C13.9924 43.654 14.429 44.7198 14.9765 45.716C13.7171 46.2658 12.3246 46.5715 10.8608 46.5715C5.17861 46.5715 0.572266 41.9651 0.572266 36.2829V24.2857C0.572266 21.4454 2.8748 19.1429 5.71512 19.1429ZM50.2865 19.1429C53.1269 19.1429 55.4294 21.4454 55.4294 24.2857V36.2857C55.4294 41.9664 50.8243 46.5715 45.1437 46.5715C43.683 46.5715 42.2933 46.267 41.0349 45.718L41.1622 45.4866C41.6515 44.5581 42.0453 43.5715 42.3307 42.5398C43.1866 42.9272 44.14 43.1429 45.1437 43.1429C48.9308 43.1429 52.0008 40.0728 52.0008 36.2857V24.2857C52.0008 23.339 51.2333 22.5715 50.2865 22.5715L42.6686 22.5722C42.359 21.2609 41.7018 20.0838 40.7997 19.1435L50.2865 19.1429ZM28.0008 0.857178C32.4191 0.857178 36.0008 4.4389 36.0008 8.85718C36.0008 13.2755 32.4191 16.8572 28.0008 16.8572C23.5826 16.8572 20.0008 13.2755 20.0008 8.85718C20.0008 4.4389 23.5826 0.857178 28.0008 0.857178ZM46.2934 3.14289C50.0805 3.14289 53.1505 6.21294 53.1505 10C53.1505 13.7871 50.0805 16.8572 46.2934 16.8572C42.5063 16.8572 39.4362 13.7871 39.4362 10C39.4362 6.21294 42.5063 3.14289 46.2934 3.14289ZM9.7083 3.14289C13.4954 3.14289 16.5654 6.21294 16.5654 10C16.5654 13.7871 13.4954 16.8572 9.7083 16.8572C5.92121 16.8572 2.85116 13.7871 2.85116 10C2.85116 6.21294 5.92121 3.14289 9.7083 3.14289ZM28.0008 4.28575C25.4761 4.28575 23.4294 6.33245 23.4294 8.85718C23.4294 11.3819 25.4761 13.4286 28.0008 13.4286C30.5256 13.4286 32.5723 11.3819 32.5723 8.85718C32.5723 6.33245 30.5256 4.28575 28.0008 4.28575ZM46.2934 6.57146C44.3998 6.57146 42.8648 8.10649 42.8648 10C42.8648 11.8936 44.3998 13.4286 46.2934 13.4286C48.1869 13.4286 49.7219 11.8936 49.7219 10C49.7219 8.10649 48.1869 6.57146 46.2934 6.57146ZM9.7083 6.57146C7.81475 6.57146 6.27973 8.10649 6.27973 10C6.27973 11.8936 7.81475 13.4286 9.7083 13.4286C11.6018 13.4286 13.1369 11.8936 13.1369 10C13.1369 8.10649 11.6018 6.57146 9.7083 6.57146Z" fill="#58A9F3"/>
</svg>
