<svg width="54" height="64" viewBox="0 0 54 64" fill="none" xmlns="http://www.w3.org/2000/svg">
<path d="M41.6674 16H25.6674C24.9314 16 24.334 16.5974 24.334 17.3334C24.334 18.0694 24.9314 18.6667 25.6674 18.6667H41.6674C42.4034 18.6667 43.0007 18.0694 43.0007 17.3334C43.0007 16.5974 42.4034 16 41.6674 16Z" fill="#58A9F3"/>
<path d="M36.3341 56H3.00073V18.6666H17.6674C18.4034 18.6666 19.0007 18.0693 19.0007 17.3333V2.66663H45.6674V33.3332C45.6674 34.0692 46.2647 34.6666 47.0007 34.6666C47.7367 34.6666 48.3341 34.0692 48.3341 33.3332V1.33325C48.3341 0.597375 47.7367 0 47.0007 0H17.6674C17.4887 0 17.3154 0.037375 17.1527 0.104C17.0754 0.136 17.0167 0.194625 16.9474 0.24C16.8727 0.288 16.7874 0.325375 16.7234 0.389375L0.723359 16.3894C0.661984 16.4508 0.62736 16.5334 0.57936 16.6054C0.53136 16.6774 0.469984 16.7388 0.437984 16.8188C0.371359 16.9814 0.333984 17.1548 0.333984 17.3334V57.3334C0.333984 58.0694 0.931359 58.6668 1.66736 58.6668H36.334C37.07 58.6668 37.6674 58.0694 37.6674 57.3334C37.6674 56.5974 37.0701 56 36.3341 56ZM16.3341 4.552V16H4.88611L16.3341 4.552Z" fill="#58A9F3"/>
<path d="M36.3347 37.3334H7.00134C6.26534 37.3334 5.66797 37.9308 5.66797 38.6668C5.66797 39.4028 6.26534 40 7.00134 40H36.3347C37.0707 40 37.6681 39.4026 37.6681 38.6666C37.6681 37.9306 37.0707 37.3334 36.3347 37.3334Z" fill="#58A9F3"/>
<path d="M41.668 26.6666H7.00134C6.26534 26.6666 5.66797 27.264 5.66797 28C5.66797 28.736 6.26534 29.3334 7.00134 29.3334H41.668C42.404 29.3334 43.0013 28.736 43.0013 28C43.0013 27.264 42.404 26.6666 41.668 26.6666Z" fill="#58A9F3"/>
<path d="M51.014 49.288C52.6166 48.0666 53.6674 46.1626 53.6674 44C53.6674 40.3254 50.6754 37.3334 47.0007 37.3334C43.3261 37.3334 40.334 40.3254 40.334 44C40.334 46.16 41.3846 48.0666 42.9846 49.2854L40.3606 62.4026C40.262 62.904 40.4566 63.416 40.8592 63.7253C41.2646 64.0373 41.8112 64.0852 42.2646 63.8586L47.0006 61.4906L51.7366 63.8586C51.926 63.952 52.1312 64 52.334 64C52.6194 64 52.9074 63.9066 53.1394 63.7254C53.5447 63.4134 53.7394 62.904 53.638 62.4027L51.014 49.288ZM47.5952 58.8054C47.2219 58.6187 46.7792 58.6187 46.4032 58.8054L43.5099 60.2534L45.4645 50.4694C45.9605 50.5894 46.4699 50.6668 47.0005 50.6668C47.5311 50.6668 48.0379 50.5894 48.5339 50.4721L50.4885 60.2535L47.5952 58.8054ZM47.0006 48C44.7952 48 43.0006 46.2054 43.0006 44C43.0006 41.7946 44.7952 40 47.0006 40C49.206 40 51.0006 41.7946 51.0006 44C51.0006 46.2054 49.206 48 47.0006 48Z" fill="#58A9F3"/>
<path d="M17.668 50.6666C18.404 50.6666 19.0013 50.0692 19.0013 49.3332C19.0013 48.5972 18.404 48 17.668 48H7.00134C6.26534 48 5.66797 48.5974 5.66797 49.3334C5.66797 50.0694 6.26534 50.6666 7.00134 50.6666H17.668Z" fill="#58A9F3"/>
</svg>
