<svg width="64" height="64" viewBox="0 0 64 64" fill="none" xmlns="http://www.w3.org/2000/svg">
<path d="M46.6666 16H30.6666C29.9306 16 29.3333 16.5974 29.3333 17.3334C29.3333 18.0694 29.9306 18.6667 30.6666 18.6667H46.6666C47.4026 18.6667 48 18.0694 48 17.3334C48 16.5974 47.4026 16 46.6666 16Z" fill="#58A9F3"/>
<path d="M41.3334 56H8V18.6666H22.6666C23.4026 18.6666 24 18.0693 24 17.3333V2.66663H50.6666V33.3332C50.6666 34.0692 51.264 34.6666 52 34.6666C52.736 34.6666 53.3334 34.0692 53.3334 33.3332V1.33325C53.3334 0.597375 52.736 0 52 0H22.6666C22.488 0 22.3146 0.037375 22.152 0.104C22.0746 0.136 22.016 0.194625 21.9466 0.24C21.872 0.288 21.7866 0.325375 21.7226 0.389375L5.72263 16.3894C5.66125 16.4508 5.62663 16.5334 5.57863 16.6054C5.53063 16.6774 5.46925 16.7388 5.43725 16.8188C5.37063 16.9814 5.33325 17.1548 5.33325 17.3334V57.3334C5.33325 58.0694 5.93063 58.6668 6.66663 58.6668H41.3333C42.0693 58.6668 42.6666 58.0694 42.6666 57.3334C42.6666 56.5974 42.0694 56 41.3334 56ZM21.3334 4.552V16H9.88538L21.3334 4.552Z" fill="#58A9F3"/>
<path d="M41.3334 37.3334H12C11.264 37.3334 10.6666 37.9308 10.6666 38.6668C10.6666 39.4028 11.264 40 12 40H41.3334C42.0694 40 42.6667 39.4026 42.6667 38.6666C42.6667 37.9306 42.0694 37.3334 41.3334 37.3334Z" fill="#58A9F3"/>
<path d="M46.6666 26.6666H12C11.264 26.6666 10.6666 27.264 10.6666 28C10.6666 28.736 11.264 29.3334 12 29.3334H46.6666C47.4026 29.3334 48 28.736 48 28C48 27.264 47.4026 26.6666 46.6666 26.6666Z" fill="#58A9F3"/>
<path d="M56.0134 49.288C57.616 48.0666 58.6668 46.1626 58.6668 44C58.6668 40.3254 55.6748 37.3334 52.0001 37.3334C48.3255 37.3334 45.3334 40.3254 45.3334 44C45.3334 46.16 46.384 48.0666 47.984 49.2854L45.36 62.4026C45.2614 62.904 45.456 63.416 45.8586 63.7253C46.264 64.0373 46.8106 64.0852 47.264 63.8586L52 61.4906L56.736 63.8586C56.9254 63.952 57.1306 64 57.3334 64C57.6188 64 57.9068 63.9066 58.1388 63.7254C58.5441 63.4134 58.7388 62.904 58.6374 62.4027L56.0134 49.288ZM52.5946 58.8054C52.2213 58.6187 51.7786 58.6187 51.4026 58.8054L48.5093 60.2534L50.4639 50.4694C50.9599 50.5894 51.4693 50.6668 51.9999 50.6668C52.5305 50.6668 53.0373 50.5894 53.5333 50.4721L55.4879 60.2535L52.5946 58.8054ZM52 48C49.7946 48 48 46.2054 48 44C48 41.7946 49.7946 40 52 40C54.2054 40 56 41.7946 56 44C56 46.2054 54.2054 48 52 48Z" fill="#58A9F3"/>
<path d="M22.6666 50.6666C23.4026 50.6666 24 50.0692 24 49.3332C24 48.5972 23.4026 48 22.6666 48H12C11.264 48 10.6666 48.5974 10.6666 49.3334C10.6666 50.0694 11.264 50.6666 12 50.6666H22.6666Z" fill="#58A9F3"/>
</svg>
