<svg width="64" height="64" viewBox="0 0 64 64" fill="none" xmlns="http://www.w3.org/2000/svg">
<path d="M39.889 24C39.5737 22.1359 38.6084 20.4437 37.1643 19.2234C35.7202 18.0032 33.8907 17.3337 32 17.334C27.5819 17.334 24 20.248 24 24.6671C24 29.0861 28 31.087 32 32.001C36 32.9011 40 34.918 40 39.335C40 43.752 36.4181 46.6681 32 46.6681C29.8782 46.6681 27.8434 45.8252 26.3431 44.3248C24.8429 42.8246 24 40.7897 24 38.6681" stroke="#58A9F3" stroke-width="2" stroke-miterlimit="10" stroke-linecap="round" stroke-linejoin="round"/>
<path d="M32 17.334V11.999V17.334ZM32 52.002V46.667V52.002ZM32 4.47102L37.967 1.99902L42.535 6.56602L48.9941 6.56702L51.4651 12.534L57.434 15.007V21.465L62.0001 26.032L59.5291 31.999L62.0001 37.967L57.434 42.5351V48.993L51.4651 51.465L48.9941 57.432L42.535 57.433L37.967 62.001L32 59.529L26.033 62.001L21.465 57.433L15.0059 57.432L12.5349 51.465L6.566 48.993V42.5351L2 37.967L4.471 31.999L2 26.032L6.566 21.465V15.007L12.5349 12.534L15.0059 6.56702L21.465 6.56602L26.033 1.99902L32 4.47102Z" stroke="#58A9F3" stroke-width="2" stroke-miterlimit="10" stroke-linecap="round" stroke-linejoin="round"/>
</svg>
