<svg width="64" height="56" viewBox="0 0 64 56" fill="none" xmlns="http://www.w3.org/2000/svg">
<path d="M58.5015 36.4159V9.52563C58.5015 8.8215 57.9307 8.25075 57.2266 8.25075H53.4865V4.38975C53.4865 2.35413 51.8304 0.697876 49.7946 0.697876C47.7589 0.697876 46.1027 2.354 46.1027 4.38975V8.25075H32.9427V4.38975C32.9427 2.35413 31.2865 0.697876 29.2509 0.697876C27.2153 0.697876 25.559 2.354 25.559 4.38975V8.25075H12.3988V4.38975C12.3988 2.35413 10.7425 0.697876 8.70687 0.697876C6.67125 0.697876 5.01512 2.354 5.01512 4.38975V8.25075H1.27488C0.57075 8.25075 0 8.8215 0 9.52563V48.5589C0 49.263 0.57075 49.8337 1.27488 49.8337H45.1291C46.7785 53.075 50.145 55.302 54.0241 55.302C59.5247 55.302 64 50.8269 64 45.3261C64 41.4351 61.7593 38.0595 58.5015 36.4159ZM49.7946 3.24763C50.4242 3.24763 50.9366 3.76 50.9366 4.38963V8.19038H48.6526V4.38975H48.6525C48.6526 3.76013 49.165 3.24763 49.7946 3.24763ZM28.1087 4.38975C28.1087 3.76013 28.6211 3.24775 29.2507 3.24775C29.8804 3.24775 30.3927 3.76013 30.3927 4.38975V8.1905H28.1087V4.38975ZM7.56488 4.38975C7.56488 3.76013 8.07725 3.24775 8.70687 3.24775C9.3365 3.24775 9.84888 3.76013 9.84888 4.38975V8.1905H7.56488V4.38975ZM2.54975 47.284V10.8006H55.9516V35.5391C55.3276 35.4165 54.6836 35.3505 54.0241 35.3505C53.8843 35.3505 53.7455 35.3554 53.6071 35.3611V14.5408C53.6071 13.8366 53.0364 13.2659 52.3322 13.2659H6.16913C5.465 13.2659 4.89425 13.8366 4.89425 14.5408V43.5439C4.89425 44.248 5.465 44.8187 6.16913 44.8187H44.0612C44.0529 44.9869 44.0484 45.1561 44.0484 45.3262C44.0484 45.9962 44.1159 46.6506 44.2424 47.284H2.54975ZM44.5296 42.269H7.444V15.8156H51.0575V35.8009C47.9691 36.7649 45.5224 39.1932 44.5296 42.269ZM54.0241 52.7524C49.9294 52.7524 46.5981 49.421 46.5981 45.3264C46.5981 41.2317 49.9295 37.9004 54.0241 37.9004C58.1189 37.9004 61.4501 41.2317 61.4501 45.3264C61.4503 49.421 58.1189 52.7524 54.0241 52.7524Z" fill="#58A9F3"/>
</svg>
