<svg width="64" height="64" viewBox="0 0 64 64" fill="none" xmlns="http://www.w3.org/2000/svg">
<path d="M58.5015 40.4159V13.5256C58.5015 12.8215 57.9307 12.2508 57.2266 12.2508H53.4865V8.38975C53.4865 6.35413 51.8304 4.69788 49.7946 4.69788C47.7589 4.69788 46.1027 6.354 46.1027 8.38975V12.2508H32.9427V8.38975C32.9427 6.35413 31.2865 4.69788 29.2509 4.69788C27.2153 4.69788 25.559 6.354 25.559 8.38975V12.2508H12.3988V8.38975C12.3988 6.35413 10.7425 4.69788 8.70687 4.69788C6.67125 4.69788 5.01512 6.354 5.01512 8.38975V12.2508H1.27488C0.57075 12.2508 0 12.8215 0 13.5256V52.5589C0 53.263 0.57075 53.8337 1.27488 53.8337H45.1291C46.7785 57.075 50.145 59.302 54.0241 59.302C59.5247 59.302 64 54.8269 64 49.3261C64 45.4351 61.7593 42.0595 58.5015 40.4159ZM49.7946 7.24763C50.4242 7.24763 50.9366 7.76 50.9366 8.38963V12.1904H48.6526V8.38975H48.6525C48.6526 7.76013 49.165 7.24763 49.7946 7.24763ZM28.1087 8.38975C28.1087 7.76013 28.6211 7.24775 29.2507 7.24775C29.8804 7.24775 30.3927 7.76013 30.3927 8.38975V12.1905H28.1087V8.38975ZM7.56488 8.38975C7.56488 7.76013 8.07725 7.24775 8.70687 7.24775C9.3365 7.24775 9.84888 7.76013 9.84888 8.38975V12.1905H7.56488V8.38975ZM2.54975 51.284V14.8006H55.9516V39.5391C55.3276 39.4165 54.6836 39.3505 54.0241 39.3505C53.8843 39.3505 53.7455 39.3554 53.6071 39.3611V18.5408C53.6071 17.8366 53.0364 17.2659 52.3322 17.2659H6.16913C5.465 17.2659 4.89425 17.8366 4.89425 18.5408V47.5439C4.89425 48.248 5.465 48.8187 6.16913 48.8187H44.0612C44.0529 48.9869 44.0484 49.1561 44.0484 49.3262C44.0484 49.9962 44.1159 50.6506 44.2424 51.284H2.54975ZM44.5296 46.269H7.444V19.8156H51.0575V39.8009C47.9691 40.7649 45.5224 43.1932 44.5296 46.269ZM54.0241 56.7524C49.9294 56.7524 46.5981 53.421 46.5981 49.3264C46.5981 45.2317 49.9295 41.9004 54.0241 41.9004C58.1189 41.9004 61.4501 45.2317 61.4501 49.3264C61.4503 53.421 58.1189 56.7524 54.0241 56.7524Z" fill="#58A9F3"/>
<path d="M58.6719 46.1286C58.174 45.6307 57.3668 45.6309 56.8689 46.1286L52.2114 50.7861L50.696 49.2706C50.198 48.7727 49.3908 48.7726 48.8929 49.2706C48.395 49.7686 48.395 50.5759 48.8929 51.0737L51.3099 53.4907C51.5589 53.7397 51.885 53.8641 52.2114 53.8641C52.5376 53.8641 52.8639 53.7397 53.1129 53.4906L58.6719 47.9316C59.1698 47.4337 59.1698 46.6264 58.6719 46.1286Z" fill="#58A9F3"/>
<path d="M33.118 37.1754H29.618C29.8637 36.9542 30.1152 36.7224 30.3671 36.4828C32.9365 34.0368 34.1854 32.0682 34.1854 30.4647C34.1854 27.7602 31.985 25.5601 29.2806 25.5601C26.5762 25.5601 24.376 27.7603 24.376 30.4647C24.376 31.1688 24.9467 31.7396 25.6509 31.7396C26.355 31.7396 26.9257 31.1688 26.9257 30.4647C26.9257 29.1662 27.9821 28.1098 29.2806 28.1098C30.5571 28.1098 31.6356 29.1883 31.6356 30.4647C31.6356 31.8789 28.3515 35.1786 25.309 37.4242C24.8657 37.7509 24.6825 38.3254 24.8545 38.8486C25.0266 39.3717 25.515 39.7252 26.0656 39.7252H33.1179C33.822 39.7252 34.3929 39.1546 34.3929 38.4504C34.3929 37.7462 33.8221 37.1754 33.118 37.1754Z" fill="#58A9F3"/>
</svg>
