<svg width="52" height="52" viewBox="0 0 52 52" fill="none" xmlns="http://www.w3.org/2000/svg">
<path d="M17.0625 22.75C19.3062 22.75 21.125 20.9312 21.125 18.6875C21.125 16.4438 19.3062 14.625 17.0625 14.625C14.8188 14.625 13 16.4438 13 18.6875C13 20.9312 14.8188 22.75 17.0625 22.75Z" stroke="#58A9F3" stroke-width="2" stroke-miterlimit="10" stroke-linecap="round" stroke-linejoin="round"/>
<path d="M34.9375 37.375C37.1812 37.375 39 35.5562 39 33.3125C39 31.0688 37.1812 29.25 34.9375 29.25C32.6938 29.25 30.875 31.0688 30.875 33.3125C30.875 35.5562 32.6938 37.375 34.9375 37.375Z" stroke="#58A9F3" stroke-width="2" stroke-miterlimit="10" stroke-linecap="round" stroke-linejoin="round"/>
<path d="M37.375 14.625L14.625 37.375" stroke="#58A9F3" stroke-width="2" stroke-miterlimit="10" stroke-linecap="round" stroke-linejoin="round"/>
<path d="M26 50.375C39.4619 50.375 50.375 39.4619 50.375 26C50.375 12.5381 39.4619 1.625 26 1.625C12.5381 1.625 1.625 12.5381 1.625 26C1.625 39.4619 12.5381 50.375 26 50.375Z" stroke="#58A9F3" stroke-width="2" stroke-miterlimit="10" stroke-linecap="round" stroke-linejoin="round"/>
</svg>
