<svg width="52" height="52" viewBox="0 0 52 52" fill="none" xmlns="http://www.w3.org/2000/svg">
<path d="M50.3343 10.3505L44.6687 13.9304C44.4796 14.0508 44.2568 14.1077 44.0331 14.0931C43.8093 14.0785 43.5959 13.9931 43.424 13.8491L41.088 11.8991C40.9244 11.7628 40.8056 11.5801 40.7476 11.3751L40.0058 8.77507C39.9401 8.5473 39.953 8.30406 40.0422 8.08447C40.1316 7.86489 40.2922 7.68172 40.4982 7.56445L46.9714 3.85701C45.5045 2.62457 43.7004 1.86249 41.7943 1.67006C39.8881 1.47763 37.9682 1.86376 36.2845 2.77816C34.6009 3.69257 33.2318 5.09283 32.3554 6.79653C31.4791 8.50023 31.1362 10.4284 31.3714 12.3298C31.4413 12.8232 31.397 13.3261 31.2421 13.7998C31.0871 14.2735 30.8256 14.7055 30.4776 15.0622L15.0677 30.4802C14.7141 30.827 14.2856 31.0879 13.8153 31.2428C13.3449 31.3978 12.8452 31.4427 12.3548 31.3739C11.9598 31.3232 11.562 31.2977 11.1637 31.2976C9.78698 31.2879 8.42472 31.5785 7.17176 32.149C5.9188 32.7195 4.80528 33.5563 3.90873 34.6012C3.01219 35.646 2.35418 36.8737 1.98053 38.1987C1.60687 39.5238 1.52657 40.9143 1.74519 42.2736L8.18019 38.2111C8.36942 38.0907 8.59206 38.0338 8.81584 38.0484C9.03963 38.063 9.25297 38.1484 9.42494 38.2924L11.7609 40.2424C11.9245 40.3785 12.0431 40.5609 12.1013 40.7656L12.8431 43.3656C12.9089 43.5935 12.896 43.8366 12.8066 44.0563C12.7173 44.2759 12.5568 44.459 12.3508 44.5763L5.49407 48.4941C7.30024 49.8411 9.52704 50.501 11.7755 50.3556C13.0805 50.2722 14.3542 49.9215 15.5178 49.325C16.6814 48.7283 17.7098 47.8988 18.5391 46.8879C19.3685 45.877 19.981 44.7063 20.3386 43.4486C20.6962 42.1908 20.7913 40.873 20.618 39.5769C20.5451 39.088 20.5863 38.5888 20.7385 38.1185C20.8905 37.6481 21.1493 37.2194 21.4946 36.8656L36.8509 21.5094C37.2048 21.1607 37.6345 20.8984 38.1066 20.7434C38.5787 20.5884 39.0802 20.5446 39.572 20.6156C40.9193 20.7963 42.2897 20.6868 43.5915 20.2945C44.8931 19.9023 46.0958 19.2362 47.1189 18.341C48.142 17.4457 48.962 16.3422 49.5237 15.1043C50.0854 13.8663 50.3759 12.5225 50.3757 11.163C50.3757 10.8876 50.357 10.6194 50.3343 10.3505Z" stroke="#58A9F3" stroke-width="2" stroke-miterlimit="10" stroke-linecap="round" stroke-linejoin="round"/>
</svg>
