<svg width="52" height="52" viewBox="0 0 52 52" fill="none" xmlns="http://www.w3.org/2000/svg">
<path d="M50.375 37.3749V33.3125L43.875 27.625H37.375" stroke="#58A9F3" stroke-width="2" stroke-miterlimit="10" stroke-linecap="round" stroke-linejoin="round"/>
<path d="M19.5 47.125C21.2949 47.125 22.75 45.6699 22.75 43.8749C22.75 42.0801 21.2949 40.625 19.5 40.625C17.7051 40.625 16.25 42.0801 16.25 43.8749C16.25 45.6699 17.7051 47.125 19.5 47.125Z" stroke="#58A9F3" stroke-width="2" stroke-miterlimit="10" stroke-linecap="round" stroke-linejoin="round"/>
<path d="M43.8749 47.125C45.6699 47.125 47.125 45.6699 47.125 43.8749C47.125 42.0801 45.6699 40.625 43.8749 40.625C42.0801 40.625 40.625 42.0801 40.625 43.8749C40.625 45.6699 42.0801 47.125 43.8749 47.125Z" stroke="#58A9F3" stroke-width="2" stroke-miterlimit="10" stroke-linecap="round" stroke-linejoin="round"/>
<path d="M19.9063 19.5H37.375V37.375M40.625 43.875H22.75H40.625ZM13 37.375V43.875H19.0667H47.125H50.375V37.375H13ZM13 37.375V24.2125V37.375Z" stroke="#58A9F3" stroke-width="2" stroke-miterlimit="10" stroke-linecap="round" stroke-linejoin="round"/>
<path d="M11.375 24.375C16.7598 24.375 21.125 20.0098 21.125 14.625C21.125 9.24022 16.7598 4.875 11.375 4.875C5.99022 4.875 1.625 9.24022 1.625 14.625C1.625 20.0098 5.99022 24.375 11.375 24.375Z" stroke="#58A9F3" stroke-width="2" stroke-miterlimit="10" stroke-linecap="round" stroke-linejoin="round"/>
<path d="M11.375 9.75V16.25H16.25" stroke="#58A9F3" stroke-width="2" stroke-miterlimit="10" stroke-linecap="round" stroke-linejoin="round"/>
</svg>
