<svg width="15" height="10" viewBox="0 0 15 10" fill="none" xmlns="http://www.w3.org/2000/svg">
<path d="M13.6667 1.22757C13.4169 0.979232 13.0789 0.839844 12.7267 0.839844C12.3744 0.839844 12.0365 0.979232 11.7867 1.22757L7.00001 5.94757L2.28001 1.22757C2.0302 0.979232 1.69226 0.839844 1.34001 0.839844C0.987765 0.839844 0.64983 0.979232 0.400013 1.22757C0.275042 1.35152 0.175849 1.49899 0.108157 1.66146C0.0404659 1.82394 0.00561523 1.99822 0.00561523 2.17423C0.00561523 2.35025 0.0404659 2.52452 0.108157 2.687C0.175849 2.84948 0.275042 2.99695 0.400013 3.1209L6.05335 8.77423C6.1773 8.8992 6.32476 8.9984 6.48724 9.06609C6.64972 9.13378 6.824 9.16863 7.00001 9.16863C7.17603 9.16863 7.3503 9.13378 7.51278 9.06609C7.67526 8.9984 7.82273 8.8992 7.94668 8.77423L13.6667 3.1209C13.7916 2.99695 13.8908 2.84948 13.9585 2.687C14.0262 2.52452 14.0611 2.35025 14.0611 2.17423C14.0611 1.99822 14.0262 1.82394 13.9585 1.66146C13.8908 1.49899 13.7916 1.35152 13.6667 1.22757Z" fill="black"/>
</svg>
