<svg width="24" height="25" viewBox="0 0 24 25" fill="none" xmlns="http://www.w3.org/2000/svg">
<path d="M20.6799 13.6667C20.4232 13.6667 20.1549 13.585 19.8982 13.5267C19.3784 13.4121 18.8677 13.2601 18.3699 13.0717C17.8286 12.8748 17.2337 12.885 16.6996 13.1004C16.1654 13.3158 15.7298 13.7211 15.4765 14.2383L15.2199 14.7633C14.0835 14.1312 13.0394 13.3461 12.1165 12.43C11.2004 11.5072 10.4153 10.463 9.78321 9.32668L10.2732 9.00001C10.7905 8.74675 11.1958 8.31113 11.4112 7.77698C11.6265 7.24284 11.6368 6.64791 11.4399 6.10668C11.2546 5.60783 11.1026 5.09727 10.9849 4.57834C10.9265 4.32168 10.8799 4.05334 10.8449 3.78501C10.7032 2.96323 10.2728 2.21904 9.6311 1.68645C8.98943 1.15387 8.17869 0.867886 7.34487 0.880009H3.84487C3.34208 0.875288 2.84417 0.978958 2.38504 1.18396C1.9259 1.38896 1.51634 1.69049 1.18421 2.068C0.852083 2.44552 0.605197 2.89017 0.46036 3.37168C0.315522 3.85318 0.276133 4.36024 0.344873 4.85834C0.966401 9.74595 3.19857 14.2872 6.6888 17.7648C10.179 21.2423 14.7284 23.4579 19.6182 24.0617H20.0615C20.9219 24.0629 21.7525 23.7473 22.3949 23.175C22.764 22.8449 23.0588 22.4402 23.2599 21.9877C23.461 21.5352 23.5638 21.0452 23.5615 20.55V17.05C23.5473 16.2396 23.2521 15.4593 22.7266 14.8423C22.2011 14.2253 21.4777 13.8097 20.6799 13.6667ZM21.2632 20.6667C21.263 20.8323 21.2275 20.996 21.1591 21.1469C21.0907 21.2978 20.991 21.4323 20.8665 21.5417C20.7366 21.6549 20.5842 21.7393 20.4193 21.7896C20.2545 21.8398 20.0809 21.8548 19.9099 21.8333C15.5406 21.2731 11.4822 19.2742 8.37471 16.152C5.26727 13.0298 3.28769 8.9619 2.74821 4.59001C2.72964 4.41911 2.74591 4.24623 2.79604 4.0818C2.84617 3.91737 2.92912 3.76481 3.03987 3.63334C3.1492 3.5089 3.28378 3.40916 3.43465 3.34076C3.58552 3.27237 3.74922 3.23689 3.91487 3.23668H7.41487C7.68618 3.23064 7.9511 3.31937 8.16404 3.48759C8.37698 3.65581 8.52462 3.89301 8.58154 4.15834C8.62821 4.47723 8.68654 4.79223 8.75654 5.10334C8.89131 5.71834 9.07068 6.32272 9.29321 6.91168L7.65987 7.67001C7.52022 7.73408 7.3946 7.82511 7.29022 7.93787C7.18585 8.05063 7.10477 8.18289 7.05166 8.32707C6.99854 8.47125 6.97442 8.6245 6.9807 8.77802C6.98697 8.93154 7.0235 9.08231 7.08821 9.22168C8.76727 12.8182 11.6583 15.7093 15.2549 17.3883C15.5389 17.505 15.8575 17.505 16.1415 17.3883C16.287 17.3363 16.4207 17.2559 16.5349 17.1517C16.6491 17.0476 16.7414 16.9218 16.8065 16.7817L17.5299 15.1483C18.133 15.364 18.7486 15.5432 19.3732 15.685C19.6843 15.755 19.9993 15.8133 20.3182 15.86C20.5835 15.9169 20.8207 16.0646 20.989 16.2775C21.1572 16.4904 21.2459 16.7554 21.2399 17.0267L21.2632 20.6667Z" fill="black"/>
</svg>
