<svg width="22" height="24" viewBox="0 0 22 24" fill="none" xmlns="http://www.w3.org/2000/svg">
<path d="M21.0833 15.5002C21.0807 14.7998 20.868 14.1164 20.4729 13.5382C20.0777 12.96 19.5182 12.5136 18.8666 12.2568L21.0483 4.09017C21.0938 3.91625 21.0986 3.73414 21.0622 3.55807C21.0257 3.382 20.9491 3.21674 20.8383 3.07517C20.7249 2.94253 20.5833 2.83699 20.4238 2.76632C20.2643 2.69566 20.091 2.66166 19.9166 2.66684H3.93325L3.54825 1.19684C3.48132 0.948237 3.33402 0.728756 3.12933 0.572598C2.92464 0.416441 2.67404 0.332377 2.41659 0.333507H0.083252V2.66684H1.51825L4.41159 13.4702C4.47995 13.7247 4.63248 13.9486 4.84433 14.1053C5.05618 14.2621 5.31486 14.3425 5.57825 14.3335H17.5833C17.8927 14.3335 18.1894 14.4564 18.4082 14.6752C18.627 14.894 18.7499 15.1908 18.7499 15.5002C18.7499 15.8096 18.627 16.1063 18.4082 16.3251C18.1894 16.5439 17.8927 16.6668 17.5833 16.6668H2.41659C2.10717 16.6668 1.81042 16.7898 1.59163 17.0085C1.37284 17.2273 1.24992 17.5241 1.24992 17.8335C1.24992 18.1429 1.37284 18.4397 1.59163 18.6585C1.81042 18.8773 2.10717 19.0002 2.41659 19.0002H3.79325C3.60138 19.5288 3.53972 20.0959 3.6135 20.6535C3.68729 21.211 3.89434 21.7425 4.21712 22.2031C4.53991 22.6636 4.96892 23.0396 5.46783 23.2992C5.96674 23.5588 6.52086 23.6943 7.08325 23.6943C7.64565 23.6943 8.19976 23.5588 8.69867 23.2992C9.19758 23.0396 9.6266 22.6636 9.94938 22.2031C10.2722 21.7425 10.4792 21.211 10.553 20.6535C10.6268 20.0959 10.5651 19.5288 10.3733 19.0002H13.1266C12.9519 19.4815 12.885 19.9954 12.9306 20.5054C12.9761 21.0155 13.1331 21.5093 13.3903 21.9521C13.6475 22.3949 13.9988 22.7759 14.4193 23.0681C14.8398 23.3603 15.3193 23.5567 15.824 23.6434C16.3287 23.7302 16.8463 23.7051 17.3402 23.57C17.8341 23.4348 18.2924 23.193 18.6827 22.8615C19.0729 22.5299 19.3857 22.1168 19.5989 21.6512C19.8121 21.1856 19.9206 20.6789 19.9166 20.1668C19.9144 19.5641 19.7535 18.9726 19.4499 18.4518C19.9488 18.1373 20.3601 17.7018 20.6457 17.1858C20.9312 16.6698 21.0817 16.0899 21.0833 15.5002ZM16.5216 12.0002H6.49992L4.56325 5.00017H18.3999L16.5216 12.0002ZM7.08325 21.3335C6.85251 21.3335 6.62694 21.2651 6.43509 21.1369C6.24323 21.0087 6.09369 20.8265 6.00539 20.6133C5.91709 20.4001 5.89399 20.1655 5.939 19.9392C5.98402 19.7129 6.09513 19.505 6.25829 19.3419C6.42146 19.1787 6.62934 19.0676 6.85565 19.0226C7.08196 18.9776 7.31654 19.0007 7.52972 19.089C7.7429 19.1773 7.9251 19.3268 8.0533 19.5187C8.18149 19.7105 8.24992 19.9361 8.24992 20.1668C8.24992 20.4763 8.127 20.773 7.90821 20.9918C7.68942 21.2106 7.39267 21.3335 7.08325 21.3335ZM16.4166 21.3335C16.1858 21.3335 15.9603 21.2651 15.7684 21.1369C15.5766 21.0087 15.427 20.8265 15.3387 20.6133C15.2504 20.4001 15.2273 20.1655 15.2723 19.9392C15.3174 19.7129 15.4285 19.505 15.5916 19.3419C15.7548 19.1787 15.9627 19.0676 16.189 19.0226C16.4153 18.9776 16.6499 19.0007 16.863 19.089C17.0762 19.1773 17.2584 19.3268 17.3866 19.5187C17.5148 19.7105 17.5833 19.9361 17.5833 20.1668C17.5833 20.4763 17.4603 20.773 17.2415 20.9918C17.0228 21.2106 16.726 21.3335 16.4166 21.3335Z" fill="white"/>
</svg>
