<svg width="22" height="24" viewBox="0 0 22 24" fill="none" xmlns="http://www.w3.org/2000/svg">
<path d="M21.083 15.5C21.0804 14.7997 20.8678 14.1162 20.4726 13.538C20.0775 12.9598 19.5179 12.5135 18.8663 12.2567L21.048 4.09C21.0936 3.91607 21.0983 3.73397 21.0619 3.5579C21.0255 3.38183 20.9489 3.21656 20.838 3.075C20.7247 2.94235 20.5831 2.83681 20.4236 2.76615C20.264 2.69548 20.0907 2.66149 19.9163 2.66667H3.93301L3.54801 1.19667C3.48107 0.948061 3.33378 0.72858 3.12909 0.572423C2.92439 0.416265 2.6738 0.332202 2.41634 0.333332H0.0830078V2.66667H1.51801L4.41134 13.47C4.47971 13.7245 4.63224 13.9484 4.84408 14.1052C5.05593 14.2619 5.31462 14.3424 5.57801 14.3333H17.583C17.8924 14.3333 18.1892 14.4562 18.408 14.675C18.6268 14.8938 18.7497 15.1906 18.7497 15.5C18.7497 15.8094 18.6268 16.1062 18.408 16.325C18.1892 16.5437 17.8924 16.6667 17.583 16.6667H2.41634C2.10692 16.6667 1.81018 16.7896 1.59138 17.0084C1.37259 17.2272 1.24967 17.5239 1.24967 17.8333C1.24967 18.1427 1.37259 18.4395 1.59138 18.6583C1.81018 18.8771 2.10692 19 2.41634 19H3.79301C3.60113 19.5287 3.53948 20.0958 3.61326 20.6533C3.68704 21.2108 3.89409 21.7424 4.21688 22.2029C4.53966 22.6635 4.96868 23.0394 5.46759 23.299C5.9665 23.5586 6.52061 23.6941 7.08301 23.6941C7.6454 23.6941 8.19952 23.5586 8.69843 23.299C9.19734 23.0394 9.62635 22.6635 9.94914 22.2029C10.2719 21.7424 10.479 21.2108 10.5528 20.6533C10.6265 20.0958 10.5649 19.5287 10.373 19H13.1263C12.9517 19.4814 12.8848 19.9952 12.9303 20.5053C12.9759 21.0153 13.1328 21.5091 13.3901 21.9519C13.6473 22.3947 13.9985 22.7757 14.4191 23.0679C14.8396 23.3601 15.3191 23.5566 15.8238 23.6433C16.3284 23.73 16.846 23.7049 17.3399 23.5698C17.8339 23.4347 18.2922 23.1928 18.6824 22.8613C19.0727 22.5297 19.3855 22.1166 19.5987 21.651C19.8119 21.1854 19.9203 20.6787 19.9163 20.1667C19.9142 19.5639 19.7532 18.9724 19.4497 18.4517C19.9486 18.1371 20.3599 17.7016 20.6454 17.1856C20.931 16.6696 21.0815 16.0898 21.083 15.5ZM16.5213 12H6.49967L4.56301 5H18.3997L16.5213 12ZM7.08301 21.3333C6.85226 21.3333 6.6267 21.2649 6.43484 21.1367C6.24298 21.0085 6.09345 20.8263 6.00515 20.6131C5.91685 20.3999 5.89374 20.1654 5.93876 19.9391C5.98377 19.7127 6.09489 19.5049 6.25805 19.3417C6.42121 19.1785 6.62909 19.0674 6.8554 19.0224C7.08171 18.9774 7.31629 19.0005 7.52947 19.0888C7.74265 19.1771 7.92486 19.3266 8.05306 19.5185C8.18125 19.7104 8.24967 19.9359 8.24967 20.1667C8.24967 20.4761 8.12676 20.7728 7.90797 20.9916C7.68917 21.2104 7.39243 21.3333 7.08301 21.3333ZM16.4163 21.3333C16.1856 21.3333 15.96 21.2649 15.7682 21.1367C15.5763 21.0085 15.4268 20.8263 15.3385 20.6131C15.2502 20.3999 15.2271 20.1654 15.2721 19.9391C15.3171 19.7127 15.4282 19.5049 15.5914 19.3417C15.7545 19.1785 15.9624 19.0674 16.1887 19.0224C16.415 18.9774 16.6496 19.0005 16.8628 19.0888C17.076 19.1771 17.2582 19.3266 17.3864 19.5185C17.5146 19.7104 17.583 19.9359 17.583 20.1667C17.583 20.4761 17.4601 20.7728 17.2413 20.9916C17.0225 21.2104 16.7258 21.3333 16.4163 21.3333Z" fill="black"/>
</svg>
