<svg width="24" height="24" viewBox="0 0 24 24" fill="none" xmlns="http://www.w3.org/2000/svg">
<path d="M6.16683 5.00001H5.00016V1.50001C5.00016 1.19059 4.87725 0.893845 4.65845 0.675052C4.43966 0.45626 4.14292 0.333344 3.8335 0.333344C3.52408 0.333344 3.22733 0.45626 3.00854 0.675052C2.78975 0.893845 2.66683 1.19059 2.66683 1.50001V5.00001H1.50016C1.19074 5.00001 0.893997 5.12293 0.675205 5.34172C0.456412 5.56051 0.333496 5.85726 0.333496 6.16668C0.333496 6.4761 0.456412 6.77284 0.675205 6.99163C0.893997 7.21043 1.19074 7.33334 1.50016 7.33334H6.16683C6.47625 7.33334 6.77299 7.21043 6.99179 6.99163C7.21058 6.77284 7.3335 6.4761 7.3335 6.16668C7.3335 5.85726 7.21058 5.56051 6.99179 5.34172C6.77299 5.12293 6.47625 5.00001 6.16683 5.00001ZM3.8335 9.66668C3.52408 9.66668 3.22733 9.78959 3.00854 10.0084C2.78975 10.2272 2.66683 10.5239 2.66683 10.8333V22.5C2.66683 22.8094 2.78975 23.1062 3.00854 23.325C3.22733 23.5438 3.52408 23.6667 3.8335 23.6667C4.14292 23.6667 4.43966 23.5438 4.65845 23.325C4.87725 23.1062 5.00016 22.8094 5.00016 22.5V10.8333C5.00016 10.5239 4.87725 10.2272 4.65845 10.0084C4.43966 9.78959 4.14292 9.66668 3.8335 9.66668ZM12.0002 19C11.6907 19 11.394 19.1229 11.1752 19.3417C10.9564 19.5605 10.8335 19.8573 10.8335 20.1667V22.5C10.8335 22.8094 10.9564 23.1062 11.1752 23.325C11.394 23.5438 11.6907 23.6667 12.0002 23.6667C12.3096 23.6667 12.6063 23.5438 12.8251 23.325C13.0439 23.1062 13.1668 22.8094 13.1668 22.5V20.1667C13.1668 19.8573 13.0439 19.5605 12.8251 19.3417C12.6063 19.1229 12.3096 19 12.0002 19ZM22.5002 9.66668H21.3335V1.50001C21.3335 1.19059 21.2106 0.893845 20.9918 0.675052C20.773 0.45626 20.4762 0.333344 20.1668 0.333344C19.8574 0.333344 19.5607 0.45626 19.3419 0.675052C19.1231 0.893845 19.0002 1.19059 19.0002 1.50001V9.66668H17.8335C17.5241 9.66668 17.2273 9.78959 17.0085 10.0084C16.7897 10.2272 16.6668 10.5239 16.6668 10.8333C16.6668 11.1428 16.7897 11.4395 17.0085 11.6583C17.2273 11.8771 17.5241 12 17.8335 12H22.5002C22.8096 12 23.1063 11.8771 23.3251 11.6583C23.5439 11.4395 23.6668 11.1428 23.6668 10.8333C23.6668 10.5239 23.5439 10.2272 23.3251 10.0084C23.1063 9.78959 22.8096 9.66668 22.5002 9.66668ZM20.1668 14.3333C19.8574 14.3333 19.5607 14.4563 19.3419 14.6751C19.1231 14.8938 19.0002 15.1906 19.0002 15.5V22.5C19.0002 22.8094 19.1231 23.1062 19.3419 23.325C19.5607 23.5438 19.8574 23.6667 20.1668 23.6667C20.4762 23.6667 20.773 23.5438 20.9918 23.325C21.2106 23.1062 21.3335 22.8094 21.3335 22.5V15.5C21.3335 15.1906 21.2106 14.8938 20.9918 14.6751C20.773 14.4563 20.4762 14.3333 20.1668 14.3333ZM14.3335 14.3333H13.1668V1.50001C13.1668 1.19059 13.0439 0.893845 12.8251 0.675052C12.6063 0.45626 12.3096 0.333344 12.0002 0.333344C11.6907 0.333344 11.394 0.45626 11.1752 0.675052C10.9564 0.893845 10.8335 1.19059 10.8335 1.50001V14.3333H9.66683C9.35741 14.3333 9.06067 14.4563 8.84187 14.6751C8.62308 14.8938 8.50016 15.1906 8.50016 15.5C8.50016 15.8094 8.62308 16.1062 8.84187 16.325C9.06067 16.5438 9.35741 16.6667 9.66683 16.6667H14.3335C14.6429 16.6667 14.9397 16.5438 15.1585 16.325C15.3772 16.1062 15.5002 15.8094 15.5002 15.5C15.5002 15.1906 15.3772 14.8938 15.1585 14.6751C14.9397 14.4563 14.6429 14.3333 14.3335 14.3333Z" fill="black"/>
</svg>
